<?xml version="1.0" encoding="UTF-8" standalone="no"?>
<!-- Created with Inkscape (http://www.inkscape.org/) -->

<svg
   xmlns:dc="http://purl.org/dc/elements/1.1/"
   xmlns:cc="http://creativecommons.org/ns#"
   xmlns:rdf="http://www.w3.org/1999/02/22-rdf-syntax-ns#"
   xmlns:svg="http://www.w3.org/2000/svg"
   xmlns="http://www.w3.org/2000/svg"
   xmlns:sodipodi="http://sodipodi.sourceforge.net/DTD/sodipodi-0.dtd"
   xmlns:inkscape="http://www.inkscape.org/namespaces/inkscape"
   width="2048"
   height="2048"
   viewBox="0 0 2048 2048"
   id="svg2"
   version="1.1"
   inkscape:version="0.91 r13725"
   sodipodi:docname="logo.svg"
   inkscape:export-filename="/home/danielrs/Pictures/logo.png"
   inkscape:export-xdpi="90"
   inkscape:export-ydpi="90">
  <defs
     id="defs4" />
  <sodipodi:namedview
     id="base"
     pagecolor="#ffffff"
     bordercolor="#666666"
     borderopacity="1.0"
     inkscape:pageopacity="0.0"
     inkscape:pageshadow="2"
     inkscape:zoom="0.5"
     inkscape:cx="796.42258"
     inkscape:cy="1010.643"
     inkscape:document-units="px"
     inkscape:current-layer="layer4"
     showgrid="false"
     units="px"
     inkscape:window-width="2558"
     inkscape:window-height="1414"
     inkscape:window-x="0"
     inkscape:window-y="24"
     inkscape:window-maximized="0" />
  <metadata
     id="metadata7">
    <rdf:RDF>
      <cc:Work
         rdf:about="">
        <dc:format>image/svg+xml</dc:format>
        <dc:type
           rdf:resource="http://purl.org/dc/dcmitype/StillImage" />
        <dc:title></dc:title>
      </cc:Work>
    </rdf:RDF>
  </metadata>
  <g
     inkscape:label="Glasses - Base"
     inkscape:groupmode="layer"
     id="layer1"
     transform="translate(0,995.63784)"
     style="display:none">
    <path
       style="fill:none;fill-rule:evenodd;stroke:#000000;stroke-width:1px;stroke-linecap:butt;stroke-linejoin:miter;stroke-opacity:1"
       d="m 75.714286,-197.63784 825.714284,0 50,54.28571 98.57143,0 50,-55.71428 877.1429,0 0,131.42857 -100,371.4286 -677.1429,0 -124.2857,-351.4286 -147.14287,0 -127.14286,351.4286 -624.28571,0 L 75.714286,-71.92355 Z"
       id="path3336"
       inkscape:connector-curvature="0" />
    <path
       style="fill:none;fill-rule:evenodd;stroke:#000000;stroke-width:1px;stroke-linecap:butt;stroke-linejoin:miter;stroke-opacity:1"
       d="m 1131.7695,-119.05078 c 6.5481,9.41114 6.9724,21.444014 12.062,31.560254 36.8569,104.236425 73.7139,208.472846 110.5708,312.709276 187.4102,0 374.8204,0 562.2305,0 27.265,-101.26237 54.53,-202.52474 81.7949,-303.787109 0,-14.356771 0,-28.713541 0,-43.070311 -254.7773,0 -509.5547,0 -764.332,0 -0.7754,0.86263 -1.5508,1.72526 -2.3262,2.58789 z m -266.56052,-1.54102 c -115.3295,0.89965 -230.66432,0.10769 -345.99609,0.41422 -122.38152,-0.0427 -244.76429,-0.28306 -367.14453,0.42367 -0.0107,58.172887 22.78816,113.1186184 36.61263,168.955747 15.84722,58.672303 31.69444,117.344613 47.54167,176.016913 169.93424,0 339.86849,0 509.80273,0 41.35741,-113.8907 82.1422,-228.0544067 123.91797,-341.75195 -1.35855,-1.44787 -2.45519,-4.04381 -4.73438,-4.0586 z"
       id="path3336-0"
       inkscape:connector-curvature="0" />
    <path
       style="fill:#000000"
       d="m 177.28146,302.04806 c 0,-0.3969 -22.59206,-84.393 -50.20458,-186.6581 l -50.204578,-185.93644 0,-62.95377 0,-62.95377 412.596808,0.0945 412.5968,0.0945 24.50415,26.77556 24.50415,26.77556 49.74209,-4.5e-4 49.742,-4.4e-4 24.6054,-27.57672 24.6054,-27.57672 438.196,0 438.196,0 0,65.40738 0,65.40737 -49.7659,184.90844 -49.7657,184.9084 -338.0944,0 -338.0943,0 -49.3722,-139.6536 C 1123.9213,86.30026 1095.9975,7.38156 1089.0231,-12.2651 l -12.6807,-35.7213 -74.3659,0.36596 -74.36583,0.36595 -63.18161,174.65535 -63.18158,174.6554 -311.98301,0.3567 c -171.59066,0.1962 -311.98301,0.032 -311.98301,-0.3649 z m 570.57162,-80.2484 c 1.0524,-2.5279 14.43219,-39.2798 29.73288,-81.6708 15.30069,-42.3911 42.49366,-117.4389 60.42883,-166.77301 24.40801,-67.13881 32.25636,-90.25806 31.2056,-91.92388 -1.26832,-2.01072 -29.92135,-2.268 -296.82034,-2.66524 -162.4791,-0.24182 -323.57706,-0.008 -357.99548,0.52048 l -62.57895,0.96015 0.0259,10.08612 c 0.059,22.95268 6.3057,53.85541 21.90695,108.37397 9.67685,33.81571 61.50574,224.95791 61.50574,226.82991 0,0.4721 114.90197,0.8585 255.33771,0.8585 l 255.3377,0 1.91345,-4.5962 z m 1069.14972,3.2779 c 0.448,-0.7251 19.2758,-69.8748 41.8393,-153.6662 l 41.0246,-152.3479 -0.3902,-20.63563 -0.39,-20.63563 -383.2519,0 -383.2519,0 0.2419,3.53553 c 0.1331,1.94454 2.396,9.5813 5.0287,16.97056 2.6328,7.38927 29.8423,84.2341 60.4657,170.76627 l 55.6789,157.3313 281.095,0 c 172.2344,0 281.4107,-0.5106 281.9099,-1.3183 z"
       id="path3464"
       inkscape:connector-curvature="0" />
  </g>
  <g
     inkscape:groupmode="layer"
     id="layer2"
     inkscape:label="Glassses"
     style="display:inline">
    <path
       style="fill:#000000"
       d="m 174.7647,1565.6005 c 0,-0.3969 -22.592,-84.393 -50.2045,-186.6581 l -50.2046,-185.9364 0,-62.9538 0,-62.9538 412.5968,0.094 412.5968,0.095 24.5042,26.7756 24.5041,26.7755 49.7421,-4e-4 49.742,-5e-4 24.6054,-27.5767 24.6054,-27.5767 438.196,0 438.196,0 0,65.4074 0,65.4074 -49.7659,184.9084 -49.7657,184.9084 -338.0944,0 -338.0943,0 -49.3722,-139.6536 c -27.1473,-76.8095 -55.0711,-155.7282 -62.0455,-175.3749 l -12.6807,-35.7213 -74.3659,0.366 -74.3658,0.3659 -63.1816,174.6554 -63.1816,174.6554 -311.9831,0.3567 c -171.5906,0.1962 -311.983,0.032 -311.983,-0.3649 z m 570.5717,-80.2484 c 1.0524,-2.5279 14.4322,-39.2798 29.7329,-81.6708 15.3006,-42.3911 42.4936,-117.4389 60.4288,-166.773 24.408,-67.1388 32.2563,-90.2581 31.2056,-91.9239 -1.2683,-2.0107 -29.9214,-2.268 -296.8204,-2.6652 -162.4791,-0.2419 -323.577,-0.01 -357.9954,0.5204 l -62.579,0.9602 0.026,10.0861 c 0.059,22.9527 6.3057,53.8554 21.907,108.374 9.6768,33.8157 61.5057,224.9579 61.5057,226.8299 0,0.4721 114.902,0.8585 255.3377,0.8585 l 255.3377,0 1.9135,-4.5962 z m 1069.1497,3.2779 c 0.448,-0.7251 19.2758,-69.8748 41.8393,-153.6662 l 41.0246,-152.3479 -0.3902,-20.6356 -0.39,-20.6357 -383.2519,0 -383.2519,0 0.2419,3.5356 c 0.1331,1.9445 2.396,9.5813 5.0287,16.9705 2.6328,7.3893 29.8423,84.2341 60.4657,170.7663 l 55.6789,157.3313 281.095,0 c 172.2344,0 281.4107,-0.5106 281.9099,-1.3183 z"
       id="path3464-1"
       inkscape:connector-curvature="0" />
  </g>
  <g
     inkscape:groupmode="layer"
     id="layer3"
     inkscape:label="Hair - Base"
     style="display:none">
    <path
       style="display:inline;fill:none;fill-rule:evenodd;stroke:#000000;stroke-width:1px;stroke-linecap:butt;stroke-linejoin:miter;stroke-opacity:1"
       d="m 282.52736,512.45002 -42,-208 114,68 26,-192 84,130 c 0,0 136,-215.999998 136,-204 0,12 20,170 24,162 4,-8 270,-205.999998 270,-205.999998 l -12,177.999998 270.00004,-229.999997 c 0,0 -52,203.999997 -40,195.999997 12,-8 242,-107.999998 242,-107.999998 l -36,181.999998 230,-108 -58,150 252,-20 -110,94 270,40 -134,66 -20,14 z"
       id="path3483"
       inkscape:connector-curvature="0" />
  </g>
  <g
     inkscape:groupmode="layer"
     id="layer4"
     inkscape:label="Hair"
     style="display:inline">
    <path
       style="fill:#000000"
       d="m 916.51131,548.90434 c -350.3291,-0.98446 -637.29429,-2.12222 -637.70042,-2.52836 -0.40613,-0.40612 -9.62706,-44.67324 -20.49096,-98.37134 -10.86389,-53.6981 -20.23166,-99.6213 -20.81727,-102.05158 -0.8551,-3.54866 10.06331,2.25936 55.45296,29.49808 l 56.51769,33.91676 1.28704,-5.49808 c 0.70787,-3.02394 6.46537,-44.64808 12.79443,-92.49808 6.32907,-47.85 12.11095,-87.69105 12.84862,-88.53566 0.73767,-0.84461 19.66913,26.84644 42.06991,61.53566 22.40078,34.68922 41.31276,62.38026 42.0266,61.53566 0.71386,-0.84462 16.45762,-25.38566 34.98614,-54.53566 36.23728,-57.01033 81.4957,-125.54394 92.31334,-139.78761 3.8577,-5.07946 6.67392,-7.42286 6.67392,-5.55341 0,14.13526 18.95334,146.32768 22.20698,154.88544 l 1.80706,4.75288 10.49298,-8.8415 c 25.4079,-21.40896 257.23528,-196.38441 258.50226,-195.10875 0.35668,0.35912 -1.9836,38.90295 -5.20062,85.65295 -3.217,46.75 -5.615,86.10958 -5.32888,87.46574 0.28612,1.35616 60.23418,-48.42988 133.21791,-110.63566 72.9837,-62.20577 133.065,-112.734008 133.514,-112.284968 0.4491,0.44904 -4.0745,20.985088 -10.0523,45.635658 -19.4681,80.28057 -30.7665,136.74658 -28.5286,142.57839 0.9516,2.47981 6.6832,0.50399 30.7693,-10.60693 64.2181,-29.62376 208.9801,-92.43867 210.2063,-91.21242 0.7148,0.71475 -6.6138,40.93617 -16.2857,89.38094 -9.6719,48.44477 -17.293,88.37365 -16.9358,88.73085 0.3572,0.35718 51.3755,-23.17446 113.3741,-52.29256 61.9986,-29.1181 113.0817,-52.58493 113.5181,-52.14852 0.4365,0.43642 -11.8561,33.44386 -27.3167,73.34988 -15.4607,39.90602 -27.8027,72.86398 -27.4268,73.23992 0.3759,0.37594 11.4347,-0.22514 24.5749,-1.33574 80.0584,-6.7664 221.7421,-17.6806 222.2986,-17.1241 0.3628,0.3628 -23.3415,21.22424 -52.6762,46.35876 -29.3347,25.13452 -52.5247,45.95894 -51.5334,46.27648 0.9914,0.31754 59.8525,9.1439 130.8025,19.61414 70.95,10.47024 130.35,19.33508 132,19.69966 1.65,0.36458 -26.25,15.04416 -62,32.62128 -35.75,17.57712 -69.6075,35.27282 -75.2389,39.3238 l -10.2389,7.3654 -94.7611,-0.33874 c -52.1186,-0.1864 -381.394,-1.1442 -731.72309,-2.12866 z"
       id="path3488"
       inkscape:connector-curvature="0" />
  </g>
  <g
     inkscape:groupmode="layer"
     id="layer5"
     inkscape:label="Sides - Base"
     style="display:none">
    <path
       style="fill:none;fill-rule:evenodd;stroke:#000000;stroke-width:1px;stroke-linecap:butt;stroke-linejoin:miter;stroke-opacity:1"
       d="m 151.32085,537.61992 200.81833,0 -49.49748,668.92298 -77.78174,0 z"
       id="path3506"
       inkscape:connector-curvature="0" />
    <path
       style="fill:#000000"
       d="m 225.49298,1203.5711 c -0.58572,-1.8446 -72.95698,-660.87811 -72.91371,-663.97327 0.0195,-1.39715 20.77969,-1.76777 99.01966,-1.76777 l 98.99495,0 0,5.03577 c 0,2.76967 -10.81873,151.23616 -24.04163,329.92552 -13.22289,178.68935 -24.04163,326.61275 -24.04163,328.71865 l 0,3.8289 -38.22815,0 c -29.34033,0 -38.35866,-0.411 -38.78949,-1.7678 z"
       id="path3512"
       inkscape:connector-curvature="0" />
    <path
       style="fill:#000000"
       d="m 1723.7891,1204.7751 c 0.5857,-1.8446 72.9569,-660.87806 72.9137,-663.97322 -0.019,-1.39715 -20.7797,-1.76777 -99.0197,-1.76777 l -98.9949,0 0,5.03577 c 0,2.76967 10.8187,151.23616 24.0416,329.92552 13.2229,178.6894 24.0416,326.6127 24.0416,328.7186 l 0,3.8289 38.2282,0 c 29.3403,0 38.3586,-0.411 38.7895,-1.7678 z"
       id="path3512-5"
       inkscape:connector-curvature="0" />
  </g>
  <g
     inkscape:label="Sides"
     id="g3536"
     inkscape:groupmode="layer"
     style="display:inline">
    <path
       style="fill:#000000"
       d="m 251.59961,537.83008 c -78.23997,0 -152.740145,0.37043 -152.759645,1.76758 C 98.805315,542.07613 198.44314,960.56217 217.23438,1130 l 90.40234,0 c 4.39464,-60.3219 11.06496,-151.11269 18.91601,-257.20898 13.2229,-178.68936 24.04102,-327.15612 24.04102,-329.92579 l 0,-5.03515 z"
       id="path3540"
       inkscape:connector-curvature="0"
       sodipodi:nodetypes="scccsscs" />
    <path
       style="fill:#000000"
       d="m 1698.6875,539.0332 0,5.03711 c 0,2.76967 10.8201,151.23642 24.043,329.92578 7.7949,105.33834 14.4279,195.61871 18.8281,256.00391 l 90.623,0 c 18.8815,-170.27467 118.2961,-586.72499 118.2616,-589.19727 -0.019,-1.39715 -74.5196,-1.76953 -152.7596,-1.76953 z"
       id="path3542"
       inkscape:connector-curvature="0"
       sodipodi:nodetypes="csscccsc" />
  </g>
</svg>
