<?xml version="1.0" encoding="UTF-8" standalone="no"?>
<!-- Generator: Adobe Illustrator 16.0.0, SVG Export Plug-In . SVG Version: 6.00 Build 0)  -->

<svg
   xmlns:dc="http://purl.org/dc/elements/1.1/"
   xmlns:cc="http://creativecommons.org/ns#"
   xmlns:rdf="http://www.w3.org/1999/02/22-rdf-syntax-ns#"
   xmlns:svg="http://www.w3.org/2000/svg"
   xmlns="http://www.w3.org/2000/svg"
   xmlns:sodipodi="http://sodipodi.sourceforge.net/DTD/sodipodi-0.dtd"
   xmlns:inkscape="http://www.inkscape.org/namespaces/inkscape"
   version="1.1"
   id="Capa_1"
   x="0px"
   y="0px"
   width="1024"
   height="1024"
   viewBox="0 0 1024 1024"
   enable-background="new 0 0 599 612"
   xml:space="preserve"
   inkscape:version="0.91 r13725"
   sodipodi:docname="Dan logo-01.svg"
   inkscape:export-filename="/home/danielrs/Development/Web/portfolio/portfolio/static/images/danielrs_logo.png"
   inkscape:export-xdpi="90"
   inkscape:export-ydpi="90"><metadata
     id="metadata3390"><rdf:RDF><cc:Work
         rdf:about=""><dc:format>image/svg+xml</dc:format><dc:type
           rdf:resource="http://purl.org/dc/dcmitype/StillImage" /><dc:title></dc:title></cc:Work></rdf:RDF></metadata><defs
     id="defs3388" /><sodipodi:namedview
     pagecolor="#ffffff"
     bordercolor="#666666"
     borderopacity="1"
     objecttolerance="10"
     gridtolerance="10"
     guidetolerance="10"
     inkscape:pageopacity="0"
     inkscape:pageshadow="2"
     inkscape:window-width="2558"
     inkscape:window-height="1414"
     id="namedview3386"
     showgrid="false"
     inkscape:zoom="0.71172839"
     inkscape:cx="534.77531"
     inkscape:cy="328.34033"
     inkscape:window-x="0"
     inkscape:window-y="24"
     inkscape:window-maximized="0"
     inkscape:current-layer="Capa_1" /><path
     d="m 950.84333,699.62113 -15.62846,0 -39.56648,0 42.78649,-257.16032 c 3.28064,-19.75387 -2.25022,-39.83544 -15.18712,-55.10023 -11.3932,-13.44264 -27.42322,-21.81848 -44.76208,-23.62548 L 887.54909,234.3452 846.09795,257.07855 798.32043,113.17773 763.26767,180.72239 689.6258,83.972148 660.71001,153.36738 519.52916,43.958652 l 0,89.647268 -306.45124,-93.36923 77.40549,127.26089 -160.33806,2.86582 70.45972,80.37171 -143.275752,52.17002 82.671192,61.69748 c -15.1966,2.85636 -29.08247,10.75297 -39.25963,22.75797 -12.93501,15.26479 -18.467767,35.34825 -15.187135,55.10023 l 42.786495,257.16032 -39.553219,0 -15.630355,0 c -13.929429,0 -25.220337,11.2909 -25.220337,25.22033 0,13.92944 11.289013,25.22034 25.220337,25.22034 l 21.072188,0 17.378646,161.04648 c 4.47204,41.42083 39.2634,72.65503 80.92668,72.65503 l 163.09215,0 c 41.04768,0 77.33731,-26.16172 90.31211,-65.09934 l 35.48083,-106.50502 61.15956,0 35.48083,106.50502 c 12.97479,38.93952 49.26442,65.09934 90.31211,65.09934 l 163.09214,0 c 41.66328,0 76.45465,-31.2342 80.92858,-72.66071 l 17.37864,-161.0408 21.0722,0 c 13.92944,0 25.22034,-11.2909 25.22034,-25.22034 0,-13.92943 -11.2909,-25.22033 -25.22034,-25.22033 z M 398.07756,902.72676 c -6.09341,18.30486 -23.15574,30.59966 -42.45123,30.59966 l -163.09215,0 c -15.84628,0 -29.07678,-11.87998 -30.7815,-27.62967 l -16.79334,-155.63306 15.62467,0 179.9139,0 c 26.49699,0 52.16623,9.51042 72.27241,26.77732 l 21.18585,18.195 -35.87861,107.69075 z m 153.33928,-141.0028 -78.83369,0 -26.94588,-23.14627 C 416.38243,713.45396 379.04534,699.62302 340.4998,699.62302 l -102.90238,0 23.10649,-305.5629 502.5808,0 23.10649,305.5629 -102.89102,0 c -38.54553,0 -75.88452,13.83283 -105.13935,38.95467 l -26.94399,23.14627 z m 310.82857,143.96711 c -1.70282,15.75348 -14.93521,27.63535 -30.7815,27.63535 l -163.09214,0 c -19.29551,0 -36.35782,-12.2948 -42.45124,-30.59966 l -35.8805,-107.68886 21.18584,-18.195 c 20.10808,-17.26499 45.77543,-26.77732 72.27241,-26.77732 l 179.91202,0 15.62468,0 -16.78957,155.62549 z"
     id="path3384"
     inkscape:connector-curvature="0" /></svg>